<svg width="25" height="24" viewBox="0 0 25 24" fill="none" xmlns="http://www.w3.org/2000/svg">
<path d="M3.5 7C3.5 5.93913 3.92143 4.92172 4.67157 4.17157C5.42172 3.42143 6.43913 3 7.5 3H17.5C18.5609 3 19.5783 3.42143 20.3284 4.17157C21.0786 4.92172 21.5 5.93913 21.5 7V17C21.5 18.0609 21.0786 19.0783 20.3284 19.8284C19.5783 20.5786 18.5609 21 17.5 21H7.5C6.43913 21 5.42172 20.5786 4.67157 19.8284C3.92143 19.0783 3.5 18.0609 3.5 17V7Z" stroke="#9398A6" stroke-width="1.5" stroke-linecap="round" stroke-linejoin="round"/>
<path d="M9 10.6667V13.3333H10.9091V18H13.4545V13.3333H15.3636L16 10.6667H13.4545V9.33333C13.4545 9.15652 13.5216 8.98695 13.6409 8.86193C13.7603 8.7369 13.9221 8.66667 14.0909 8.66667H16V6H14.0909C13.247 6 12.4377 6.35119 11.841 6.97631C11.2443 7.60143 10.9091 8.44928 10.9091 9.33333V10.6667H9Z" stroke="#9398A6" stroke-width="1.5" stroke-linecap="round" stroke-linejoin="round"/>
</svg>
