<svg width="16" height="16" viewBox="0 0 16 16" fill="none" xmlns="http://www.w3.org/2000/svg">
<path d="M8.00267 6.84568L3.69288 11.3286C3.5745 11.4521 3.41621 11.52 3.24744 11.52C3.07857 11.52 2.92038 11.4521 2.80181 11.3286L2.42437 10.9358C2.30561 10.8126 2.24024 10.6478 2.24024 10.4723C2.24024 10.2967 2.30561 10.1321 2.42437 10.0088L7.55554 4.67113C7.67449 4.5473 7.83343 4.47949 8.00239 4.47998C8.1721 4.47949 8.33085 4.54721 8.44989 4.67113L13.5761 10.0038C13.6949 10.1272 13.7602 10.2917 13.7602 10.4674C13.7602 10.643 13.6949 10.8075 13.5761 10.9309L13.1987 11.3237C12.953 11.5792 12.5531 11.5792 12.3075 11.3237L8.00267 6.84568Z" fill="#003968"/>
</svg>
