<svg width="16" height="16" viewBox="0 0 16 16" fill="none" xmlns="http://www.w3.org/2000/svg">
<path d="M7.99733 9.15432L12.3071 4.67137C12.4255 4.54793 12.5838 4.48002 12.7526 4.48002C12.9214 4.48002 13.0796 4.54793 13.1982 4.67137L13.5756 5.06419C13.6944 5.18743 13.7598 5.35218 13.7598 5.52774C13.7598 5.7033 13.6944 5.86785 13.5756 5.99119L8.44446 11.3289C8.32551 11.4527 8.16657 11.5205 7.99761 11.52C7.8279 11.5205 7.66915 11.4528 7.55011 11.3289L2.4239 5.99616C2.30514 5.87282 2.23977 5.70827 2.23977 5.53261C2.23977 5.35705 2.30514 5.1925 2.4239 5.06906L2.80134 4.67633C3.04701 4.42079 3.44693 4.42079 3.6925 4.67633L7.99733 9.15432Z" fill="#003968"/>
</svg>
