<svg width="41" height="41" viewBox="0 0 41 41" fill="none" xmlns="http://www.w3.org/2000/svg">
<g clip-path="url(#clip0_1_899)">
<path d="M33.52 10.7245V30.2758C33.52 31.14 33.1767 31.9688 32.5656 32.5799C31.9545 33.191 31.1257 33.5343 30.2615 33.5343H13.9688C13.1045 33.5343 12.2757 33.191 11.6646 32.5799C11.0535 31.9688 10.7102 31.14 10.7102 30.2758V10.7245C10.7102 9.86027 11.0535 9.03144 11.6646 8.42035C12.2757 7.80925 13.1045 7.46594 13.9688 7.46594H30.2615C31.1257 7.46594 31.9545 7.80925 32.5656 8.42035C33.1767 9.03144 33.52 9.86027 33.52 10.7245Z" stroke="#D4AF37" stroke-width="2.34615" stroke-linecap="round" stroke-linejoin="round"/>
<path d="M17.2278 27.0172H27.0034" stroke="#D4AF37" stroke-width="2.34615" stroke-linecap="round" stroke-linejoin="round"/>
<path d="M18.8561 18.8707C18.8561 19.7349 19.1994 20.5638 19.8105 21.1749C20.4216 21.786 21.2504 22.1293 22.1146 22.1293C22.9788 22.1293 23.8077 21.786 24.4188 21.1749C25.0299 20.5638 25.3732 19.7349 25.3732 18.8707C25.3732 18.0065 25.0299 17.1777 24.4188 16.5666C23.8077 15.9555 22.9788 15.6122 22.1146 15.6122C21.2504 15.6122 20.4216 15.9555 19.8105 16.5666C19.1994 17.1777 18.8561 18.0065 18.8561 18.8707Z" stroke="#D4AF37" stroke-width="2.34615" stroke-linecap="round" stroke-linejoin="round"/>
<path d="M7.45215 13.9828H12.34" stroke="#D4AF37" stroke-width="2.34615" stroke-linecap="round" stroke-linejoin="round"/>
<path d="M7.45215 20.5H12.34" stroke="#D4AF37" stroke-width="2.34615" stroke-linecap="round" stroke-linejoin="round"/>
<path d="M7.45215 27.0172H12.34" stroke="#D4AF37" stroke-width="2.34615" stroke-linecap="round" stroke-linejoin="round"/>
</g>
<defs>
<clipPath id="clip0_1_899">
<rect width="39.1026" height="39.1026" fill="white" transform="translate(0.935059 0.94873)"/>
</clipPath>
</defs>
</svg>
