<svg width="62" height="63" viewBox="0 0 62 63" fill="none" xmlns="http://www.w3.org/2000/svg">
<path d="M54.25 19.4952V43.5047C54.2501 43.7815 54.1762 44.0532 54.0358 44.2917C53.8954 44.5302 53.6938 44.7267 53.4517 44.861L31.7518 56.9148C31.5217 57.0424 31.263 57.1093 31 57.1093C30.737 57.1093 30.4783 57.0424 30.2482 56.9148L8.54825 44.861C8.30624 44.7267 8.10457 44.5302 7.9642 44.2917C7.82383 44.0532 7.74987 43.7815 7.75 43.5047V19.4952C7.75033 19.2189 7.8245 18.9477 7.96485 18.7097C8.1052 18.4717 8.30662 18.2756 8.54825 18.1415L30.2482 6.08513C30.4783 5.95756 30.737 5.89062 31 5.89062C31.263 5.89062 31.5217 5.95756 31.7518 6.08513L53.4517 18.1415C53.6934 18.2756 53.8948 18.4717 54.0351 18.7097C54.1755 18.9477 54.2497 19.2189 54.25 19.4952Z" stroke="#003968" stroke-width="3" stroke-linecap="round" stroke-linejoin="round"/>
<path d="M9.11426 19.3428L30.2459 31.0815C30.4763 31.2095 30.7354 31.2767 30.999 31.2767C31.2625 31.2767 31.5217 31.2095 31.752 31.0815L52.9586 19.3015M31.0003 54.75V31.5" stroke="#003968" stroke-width="3" stroke-linecap="round" stroke-linejoin="round"/>
</svg>
