<svg width="62" height="63" viewBox="0 0 62 63" fill="none" xmlns="http://www.w3.org/2000/svg">
<path d="M7.75 32.5C7.75 31.9477 8.19772 31.5 8.75 31.5H30C30.5523 31.5 31 31.9477 31 32.5V34.375C31 34.9273 30.5523 35.375 30 35.375H8.75C8.19772 35.375 7.75 34.9273 7.75 34.375V32.5ZM3.875 22.8125C3.875 22.2602 4.32272 21.8125 4.875 21.8125H22.25C22.8023 21.8125 23.25 22.2602 23.25 22.8125V24.6875C23.25 25.2398 22.8023 25.6875 22.25 25.6875H4.875C4.32272 25.6875 3.875 25.2398 3.875 24.6875V22.8125Z" fill="#003968"/>
<path d="M57.9678 32.6741L52.1553 19.1116C52.0059 18.7632 51.7576 18.4662 51.4411 18.2575C51.1246 18.0488 50.7538 17.9375 50.3747 17.9375H45.5622C45.0099 17.9375 44.5622 17.4898 44.5622 16.9375V14.0625C44.5622 13.5486 44.3581 13.0558 43.9948 12.6925C43.6314 12.3291 43.1386 12.125 42.6247 12.125H12.6247C12.0724 12.125 11.6247 12.5727 11.6247 13.125V15C11.6247 15.5523 12.0724 16 12.6247 16H39.6872C40.2395 16 40.6872 16.4477 40.6872 17V39.7521C40.6872 40.1082 40.4949 40.4333 40.2013 40.6346C39.5198 41.102 38.9165 41.676 38.4149 42.3358C37.9532 42.9431 37.5845 43.6142 37.3197 44.3268C37.1614 44.7531 36.7702 45.0625 36.3155 45.0625H25.6867C25.2307 45.0625 24.8388 44.7513 24.6813 44.3234C24.1239 42.8086 23.1044 41.4988 21.7578 40.5857C20.1966 39.527 18.3029 39.0741 16.4317 39.3118C14.5604 39.5495 12.8401 40.4614 11.5931 41.8768C10.3462 43.2922 9.6582 45.1137 9.6582 47C9.6582 48.8863 10.3462 50.7078 11.5931 52.1232C12.8401 53.5386 14.5604 54.4505 16.4317 54.6882C18.3029 54.9259 20.1966 54.473 21.7578 53.4143C23.1044 52.5012 24.1239 51.1914 24.6813 49.6766C24.8388 49.2487 25.2307 48.9375 25.6867 48.9375H36.3092C36.7669 48.9375 37.1597 49.2509 37.3162 49.6809C37.8104 51.0384 38.6782 52.2351 39.8265 53.1286C41.1804 54.1821 42.8468 54.7541 44.5622 54.7541C46.2777 54.7541 47.9441 54.1821 49.2979 53.1286C50.4462 52.2351 51.314 51.0384 51.8082 49.6809C51.9648 49.2509 52.3576 48.9375 52.8153 48.9375H56.1872C56.7011 48.9375 57.1939 48.7334 57.5573 48.37C57.9206 48.0067 58.1247 47.5139 58.1247 47V33.4375C58.1247 33.175 58.0713 32.9153 57.9678 32.6741ZM17.4372 50.875C16.6708 50.875 15.9216 50.6477 15.2844 50.2219C14.6472 49.7962 14.1505 49.191 13.8572 48.4829C13.5639 47.7748 13.4872 46.9957 13.6367 46.244C13.7862 45.4923 14.1553 44.8019 14.6972 44.26C15.2391 43.718 15.9296 43.349 16.6813 43.1995C17.4329 43.0499 18.2121 43.1267 18.9201 43.42C19.6282 43.7133 20.2334 44.2099 20.6592 44.8472C21.085 45.4844 21.3122 46.2336 21.3122 47C21.3122 48.0277 20.904 49.0133 20.1773 49.74C19.4506 50.4667 18.4649 50.875 17.4372 50.875ZM44.5622 22.8125C44.5622 22.2602 45.0099 21.8125 45.5622 21.8125H48.4367C48.8367 21.8125 49.1982 22.0508 49.3558 22.4184L52.6522 30.1059C52.9351 30.7658 52.4511 31.5 51.7331 31.5H45.5622C45.0099 31.5 44.5622 31.0523 44.5622 30.5V22.8125ZM44.5622 50.875C43.7958 50.875 43.0466 50.6477 42.4094 50.2219C41.7722 49.7962 41.2755 49.191 40.9822 48.4829C40.6889 47.7748 40.6122 46.9957 40.7617 46.244C40.9112 45.4923 41.2803 44.8019 41.8222 44.26C42.3641 43.718 43.0546 43.349 43.8063 43.1995C44.5579 43.0499 45.3371 43.1267 46.0451 43.42C46.7532 43.7133 47.3584 44.2099 47.7842 44.8472C48.21 45.4844 48.4372 46.2336 48.4372 47C48.4372 48.0277 48.029 49.0133 47.3023 49.74C46.5756 50.4667 45.5899 50.875 44.5622 50.875ZM54.2497 44.0625C54.2497 44.6148 53.802 45.0625 53.2497 45.0625H52.8125C52.3561 45.0625 51.964 44.7508 51.8067 44.3224C51.3091 42.9671 50.4401 41.7726 49.2921 40.8799C48.203 40.0331 46.9125 39.4964 45.5565 39.3169C45.0101 39.2446 44.5622 38.804 44.5622 38.2528V36.375C44.5622 35.8227 45.0099 35.375 45.5622 35.375H53.2497C53.802 35.375 54.2497 35.8227 54.2497 36.375V44.0625Z" fill="#003968"/>
</svg>
