<svg width="42" height="42" viewBox="0 0 42 42" fill="none" xmlns="http://www.w3.org/2000/svg">
<path d="M21 36.4736C20.8413 36.4736 20.6739 36.459 20.4978 36.4299C20.3216 36.4007 20.1582 36.3569 20.0077 36.2986C16.5626 34.9861 13.825 32.7601 11.795 29.6206C9.765 26.4811 8.75 23.0826 8.75 19.4251V11.9299C8.75 11.3302 8.92092 10.79 9.26275 10.3094C9.60342 9.82868 10.045 9.48044 10.5875 9.2646L20.0113 5.7646C20.3519 5.64093 20.6815 5.5791 21 5.5791C21.3185 5.5791 21.6487 5.64093 21.9905 5.7646L31.4125 9.2646C31.9538 9.4816 32.3954 9.82985 32.7373 10.3094C33.0791 10.79 33.25 11.3302 33.25 11.9299V19.4251C33.25 23.0826 32.235 26.4811 30.205 29.6206C28.175 32.7601 25.438 34.9861 21.994 36.2986C21.8412 36.3569 21.6772 36.4007 21.5022 36.4299C21.3272 36.459 21.1598 36.4736 21 36.4736ZM21 34.8251C24.0333 33.8626 26.5417 31.9376 28.525 29.0501C30.5083 26.1626 31.5 22.9543 31.5 19.4251V11.8966C31.5 11.6726 31.4382 11.4708 31.3145 11.2911C31.192 11.1114 31.0182 10.9773 30.793 10.8886L21.371 7.3886C21.259 7.34194 21.1353 7.3186 21 7.3186C20.8647 7.3186 20.741 7.34194 20.629 7.3886L11.207 10.8886C10.9818 10.9773 10.808 11.1114 10.6855 11.2911C10.5618 11.4708 10.5 11.6726 10.5 11.8966V19.4251C10.5 22.9543 11.4917 26.1626 13.475 29.0501C15.4583 31.9376 17.9667 33.8626 21 34.8251Z" fill="#D4AF37"/>
</svg>
