<svg width="62" height="63" viewBox="0 0 62 63" fill="none" xmlns="http://www.w3.org/2000/svg">
<path d="M54.8962 31.5H22.9791M11.7132 31.5H7.10449M11.7132 31.5C11.7132 30.0064 12.3065 28.574 13.3626 27.5179C14.4188 26.4617 15.8512 25.8684 17.3448 25.8684C18.8384 25.8684 20.2709 26.4617 21.327 27.5179C22.3832 28.574 22.9765 30.0064 22.9765 31.5C22.9765 32.9937 22.3832 34.4261 21.327 35.4822C20.2709 36.5384 18.8384 37.1317 17.3448 37.1317C15.8512 37.1317 14.4188 36.5384 13.3626 35.4822C12.3065 34.4261 11.7132 32.9937 11.7132 31.5ZM54.8962 48.5681H40.0472M40.0472 48.5681C40.0472 50.0621 39.4524 51.4961 38.396 52.5525C37.3396 53.6089 35.9069 54.2024 34.4129 54.2024C32.9193 54.2024 31.4869 53.6065 30.4307 52.5503C29.3746 51.4942 28.7812 50.0617 28.7812 48.5681M40.0472 48.5681C40.0472 47.0742 39.4524 45.6427 38.396 44.5863C37.3396 43.5299 35.9069 42.9365 34.4129 42.9365C32.9193 42.9365 31.4869 43.5298 30.4307 44.5859C29.3746 45.6421 28.7812 47.0745 28.7812 48.5681M28.7812 48.5681H7.10449M54.8962 14.432H46.8749M35.609 14.432H7.10449M35.609 14.432C35.609 12.9383 36.2023 11.5059 37.2585 10.4498C38.3146 9.39363 39.747 8.80029 41.2407 8.80029C41.9802 8.80029 42.7125 8.94596 43.3958 9.22898C44.0791 9.512 44.6999 9.92682 45.2229 10.4498C45.7458 10.9727 46.1606 11.5935 46.4436 12.2768C46.7267 12.9601 46.8723 13.6924 46.8723 14.432C46.8723 15.1715 46.7267 15.9038 46.4436 16.5871C46.1606 17.2704 45.7458 17.8912 45.2229 18.4141C44.6999 18.9371 44.0791 19.3519 43.3958 19.6349C42.7125 19.918 41.9802 20.0636 41.2407 20.0636C39.747 20.0636 38.3146 19.4703 37.2585 18.4141C36.2023 17.358 35.609 15.9256 35.609 14.432Z" stroke="#003968" stroke-width="3" stroke-miterlimit="10" stroke-linecap="round"/>
</svg>
