<svg width="62" height="63" viewBox="0 0 62 63" fill="none" xmlns="http://www.w3.org/2000/svg">
<path d="M52.1111 17.9375H47.3035L35.508 29.7279C35.9142 30.7633 35.9516 31.9069 35.6138 32.9666C35.276 34.0263 34.5836 34.9373 33.653 35.5466C32.7225 36.1558 31.6105 36.426 30.5042 36.3118C29.3979 36.1976 28.3646 35.7059 27.5781 34.9194C26.7916 34.133 26.3 33.0997 26.1858 31.9933C26.0715 30.887 26.3418 29.775 26.951 28.8445C27.5602 27.914 28.4712 27.2216 29.5309 26.8837C30.5906 26.5459 31.7343 26.5833 32.7697 26.9895L44.5626 15.1966V10.389C44.5628 9.74574 44.8183 9.12881 45.273 8.67371L49.7422 4.20454C49.8249 4.1213 49.9287 4.06217 50.0425 4.03349C50.1563 4.00482 50.2757 4.00769 50.388 4.04179C50.6179 4.10896 50.7884 4.30013 50.8349 4.53521L52.0232 10.4795L57.9649 11.6678C58.1974 11.7143 58.3886 11.8848 58.4557 12.1147C58.4897 12.2264 58.4927 12.3452 58.4645 12.4585C58.4363 12.5717 58.3779 12.6752 58.2956 12.758L53.8238 17.2271C53.3693 17.6812 52.7535 17.9366 52.1111 17.9375Z" fill="#003968"/>
<path d="M6.78125 31.5C6.78125 37.9232 9.33286 44.0834 13.8748 48.6253C18.4167 53.1672 24.5768 55.7188 31 55.7188C34.1805 55.7188 37.3298 55.0923 40.2681 53.8752C43.2065 52.6581 45.8763 50.8742 48.1252 48.6253C50.3742 46.3763 52.1581 43.7065 53.3752 40.7681C54.5923 37.8298 55.2188 34.6805 55.2188 31.5C55.2188 29.1802 54.8932 26.9378 54.2862 24.8169C54.1655 24.33 54.2384 23.8151 54.4896 23.3808C54.7408 22.9465 55.1507 22.6266 55.633 22.4884C56.1153 22.3502 56.6324 22.4044 57.0755 22.6397C57.5186 22.875 57.8531 23.273 58.0087 23.75C58.7166 26.2145 59.0938 28.8133 59.0938 31.5C59.0938 47.0155 46.5155 59.5938 31 59.5938C15.4845 59.5938 2.90625 47.0155 2.90625 31.5C2.90625 15.9845 15.4845 3.40626 31 3.40626C33.6221 3.40368 36.2287 3.76793 38.75 4.48868C38.9958 4.55764 39.2256 4.67451 39.4261 4.83257C39.6267 4.99064 39.794 5.18677 39.9184 5.40971C40.0429 5.63264 40.1221 5.87798 40.1514 6.13162C40.1807 6.38525 40.1596 6.64218 40.0893 6.88764C40.019 7.1331 39.9009 7.36224 39.7417 7.56189C39.5826 7.76154 39.3855 7.92777 39.1619 8.05101C38.9383 8.17426 38.6926 8.25209 38.4388 8.28004C38.185 8.30798 37.9282 8.28549 37.6831 8.21385C35.5096 7.59348 33.2602 7.27959 31 7.28126C24.5768 7.28126 18.4167 9.83287 13.8748 14.3748C9.33286 18.9167 6.78125 25.0768 6.78125 31.5Z" fill="#003968"/>
<path d="M18.406 31.4999C18.4132 33.211 18.7691 34.9025 19.4518 36.4714C20.1346 38.0403 21.13 39.4536 22.3772 40.6249C23.6244 41.7963 25.0973 42.7011 26.7059 43.2842C28.3144 43.8674 30.025 44.1165 31.7331 44.0165C33.4412 43.9165 35.111 43.4694 36.6405 42.7025C38.17 41.9356 39.5272 40.865 40.6292 39.5561C41.7311 38.2472 42.5548 36.7274 43.0498 35.0896C43.5448 33.4517 43.7008 31.7302 43.5082 30.03C43.454 29.6857 43.4939 29.3331 43.6237 29.0096C43.7535 28.6861 43.9685 28.4038 44.2457 28.1925C44.5229 27.9812 44.8521 27.8488 45.1985 27.8094C45.5448 27.77 45.8954 27.825 46.213 27.9685C46.8614 28.2579 47.298 28.8753 47.3548 29.5831C47.7559 32.9808 47.0886 36.4191 45.4454 39.42C43.8023 42.421 41.2651 44.8355 38.1865 46.3279C35.1079 47.8203 31.6407 48.3166 28.2671 47.7477C24.8934 47.1787 21.7808 45.5729 19.3618 43.1534C16.9436 40.7365 15.3373 37.6269 14.7659 34.256C14.1944 30.8852 14.6861 27.42 16.1728 24.3411C17.6594 21.2623 20.0672 18.7223 23.0624 17.0735C26.0576 15.4248 29.4916 14.7489 32.8882 15.1397C33.1449 15.1635 33.3944 15.2384 33.6218 15.3598C33.8493 15.4813 34.0502 15.647 34.2129 15.8471C34.3755 16.0472 34.4965 16.2778 34.5688 16.5253C34.6412 16.7729 34.6634 17.0323 34.6342 17.2885C34.6049 17.5448 34.5248 17.7926 34.3986 18.0174C34.2724 18.2423 34.1025 18.4397 33.899 18.598C33.6955 18.7564 33.4624 18.8725 33.2134 18.9396C32.9644 19.0068 32.7045 19.0235 32.449 18.9889C30.6846 18.7849 28.8971 18.9563 27.2037 19.4919C25.5103 20.0275 23.9493 20.9152 22.6231 22.0967C21.297 23.2782 20.2357 24.7267 19.5089 26.3473C18.7821 27.9679 18.4063 29.7239 18.406 31.4999Z" fill="#003968"/>
</svg>
