<svg width="42" height="42" viewBox="0 0 42 42" fill="none" xmlns="http://www.w3.org/2000/svg">
<path d="M14.4374 31.5H27.5624V34.125H14.4374V31.5ZM17.0624 36.75H24.9374V39.375H17.0624V36.75ZM20.9999 2.625C17.5189 2.625 14.1805 4.00781 11.7191 6.46922C9.25766 8.93064 7.87485 12.269 7.87485 15.75C7.7861 17.6575 8.1515 19.5588 8.94099 21.2975C9.73049 23.0363 10.9215 24.5627 12.4161 25.7513C13.7286 26.9719 14.4374 27.6675 14.4374 28.875H17.0624C17.0624 26.46 15.6055 25.1081 14.188 23.8088C12.9613 22.8693 11.9836 21.6435 11.3406 20.2385C10.6976 18.8336 10.409 17.2924 10.4999 15.75C10.4999 12.9652 11.6061 10.2945 13.5752 8.32538C15.5444 6.35625 18.2151 5.25 20.9999 5.25C23.7846 5.25 26.4553 6.35625 28.4245 8.32538C30.3936 10.2945 31.4999 12.9652 31.4999 15.75C31.5892 17.2936 31.2985 18.8355 30.6532 20.2405C30.0079 21.6455 29.0277 22.8708 27.7986 23.8088C26.3942 25.1213 24.9374 26.4338 24.9374 28.875H27.5624C27.5624 27.6675 28.258 26.9719 29.5836 25.7381C31.0771 24.5516 32.2676 23.0274 33.0571 21.291C33.8466 19.5545 34.2126 17.6555 34.1249 15.75C34.1249 14.0264 33.7854 12.3197 33.1258 10.7273C32.4662 9.13488 31.4994 7.68799 30.2806 6.46922C29.0619 5.25045 27.615 4.28367 26.0226 3.62408C24.4302 2.96449 22.7235 2.625 20.9999 2.625Z" fill="#D4AF37"/>
</svg>
