<svg width="42" height="42" viewBox="0 0 42 42" fill="none" xmlns="http://www.w3.org/2000/svg">
<path d="M14.6738 35V33.25H20.125V26.6805C18.5838 26.4052 17.2352 25.7606 16.079 24.7467C14.9228 23.7329 14.1266 22.4782 13.6903 20.9825C11.8399 20.7643 10.262 20.0054 8.9565 18.7058C7.651 17.4061 6.99883 15.8375 7 14V12.25C7 11.781 7.17442 11.3721 7.52325 11.0232C7.87208 10.6744 8.281 10.5 8.75 10.5H13.3945V7H28.6055V10.5H33.25C33.719 10.5 34.1279 10.6744 34.4768 11.0232C34.8256 11.3721 35 11.781 35 12.25V14C35 15.8352 34.3478 17.4032 33.0435 18.704C31.7392 20.0048 30.1613 20.7632 28.3098 20.979C27.8746 22.4782 27.0789 23.7341 25.9228 24.7467C24.7666 25.7594 23.4173 26.404 21.875 26.6805V33.25H27.3263V35H14.6738ZM13.3945 19.103V12.25H8.75V14C8.75 15.3323 9.1945 16.4774 10.0835 17.4353C10.9725 18.3931 12.0762 18.949 13.3945 19.103ZM21 24.9708C22.6158 24.9708 23.9843 24.4102 25.1055 23.289C26.2278 22.1667 26.789 20.7976 26.789 19.1818V8.75H15.211V19.1835C15.211 20.7982 15.7722 22.1667 16.8945 23.289C18.0157 24.4102 19.3842 24.9708 21 24.9708ZM28.6055 19.1012C29.925 18.9473 31.0287 18.3919 31.9165 17.4353C32.8043 16.4786 33.2488 15.3335 33.25 14V12.25H28.6055V19.1012Z" fill="#D4AF37"/>
</svg>
