<svg width="25" height="24" viewBox="0 0 25 24" fill="none" xmlns="http://www.w3.org/2000/svg">
<g clip-path="url(#clip0_1_434)">
<path d="M8.5 11V16" stroke="#9398A6" stroke-width="1.5" stroke-linecap="round" stroke-linejoin="round"/>
<path d="M8.5 8V8.01" stroke="#9398A6" stroke-width="1.5" stroke-linecap="round" stroke-linejoin="round"/>
<path d="M12.5 16V11" stroke="#9398A6" stroke-width="1.5" stroke-linecap="round" stroke-linejoin="round"/>
<path d="M16.5 16V13C16.5 12.4696 16.2893 11.9609 15.9142 11.5858C15.5391 11.2107 15.0304 11 14.5 11C13.9696 11 13.4609 11.2107 13.0858 11.5858C12.7107 11.9609 12.5 12.4696 12.5 13" stroke="#9398A6" stroke-width="1.5" stroke-linecap="round" stroke-linejoin="round"/>
<path d="M3.5 7C3.5 5.93913 3.92143 4.92172 4.67157 4.17157C5.42172 3.42143 6.43913 3 7.5 3H17.5C18.5609 3 19.5783 3.42143 20.3284 4.17157C21.0786 4.92172 21.5 5.93913 21.5 7V17C21.5 18.0609 21.0786 19.0783 20.3284 19.8284C19.5783 20.5786 18.5609 21 17.5 21H7.5C6.43913 21 5.42172 20.5786 4.67157 19.8284C3.92143 19.0783 3.5 18.0609 3.5 17V7Z" stroke="#9398A6" stroke-width="1.5" stroke-linecap="round" stroke-linejoin="round"/>
</g>
<defs>
<clipPath id="clip0_1_434">
<rect width="24" height="24" fill="white" transform="translate(0.5)"/>
</clipPath>
</defs>
</svg>
