<svg width="24" height="24" viewBox="0 0 24 24" fill="none" xmlns="http://www.w3.org/2000/svg">
<path d="M18.7256 6.875C18.8507 6.87509 18.959 6.91611 19.0713 7.02832C19.1803 7.13734 19.2255 7.24911 19.2256 7.3877C19.2256 7.52637 19.1808 7.63789 19.0723 7.74609L19.0713 7.74707L9.89648 16.9463C9.78394 17.0588 9.67519 17.0996 9.5498 17.0996C9.42461 17.0995 9.3165 17.0586 9.2041 16.9463L4.90332 12.6465C4.79763 12.5407 4.7579 12.4351 4.76172 12.3027C4.76587 12.1602 4.81504 12.0424 4.92871 11.9287C5.0388 11.8186 5.15033 11.7751 5.28711 11.7754C5.42487 11.7758 5.53669 11.8191 5.64551 11.9268V11.9277L9.19531 15.502L9.54883 15.8584L18.3789 7.02832C18.4914 6.91593 18.6003 6.875 18.7256 6.875Z" fill="#D4AF37" stroke="#D4AF37"/>
</svg>
