<svg width="41" height="41" viewBox="0 0 41 41" fill="none" xmlns="http://www.w3.org/2000/svg">
<path d="M33.7698 14.2581L32.5119 12.0746C32.3554 11.8027 32.0974 11.6041 31.7944 11.5225C31.4915 11.4408 31.1686 11.4829 30.8967 11.6393L23.3824 15.9925C23.3358 16.0195 23.2828 16.0336 23.229 16.0335C23.1751 16.0333 23.1222 16.019 23.0757 15.9918C23.0292 15.9647 22.9907 15.9258 22.9641 15.8789C22.9374 15.8321 22.9237 15.7791 22.9242 15.7252L22.9303 7.0585C22.9303 6.73442 22.8015 6.42361 22.5724 6.19445C22.3432 5.96529 22.0324 5.83655 21.7083 5.83655H19.2644C18.9403 5.83655 18.6295 5.96529 18.4004 6.19445C18.1712 6.42361 18.0425 6.73442 18.0425 7.0585L18.0478 15.7321C18.0483 15.786 18.0345 15.839 18.0079 15.8858C17.9813 15.9326 17.9428 15.9716 17.8963 15.9987C17.8497 16.0259 17.7969 16.0402 17.743 16.0403C17.6891 16.0405 17.6362 16.0263 17.5896 15.9994L10.0753 11.6462C9.80338 11.4897 9.48044 11.4477 9.17753 11.5293C8.87461 11.611 8.61653 11.8096 8.46004 12.0815L7.20295 14.2657C7.12534 14.4 7.07501 14.5483 7.05485 14.702C7.03469 14.8558 7.0451 15.012 7.08548 15.1617C7.12586 15.3115 7.19541 15.4518 7.29014 15.5745C7.38487 15.6973 7.50292 15.8002 7.63751 15.8772L15.1594 20.2365C15.2053 20.2635 15.2434 20.302 15.2699 20.3482C15.2964 20.3944 15.3103 20.4467 15.3103 20.5C15.3103 20.5533 15.2964 20.6056 15.2699 20.6518C15.2434 20.698 15.2053 20.7365 15.1594 20.7635L7.63751 25.1228C7.36753 25.2801 7.17048 25.5376 7.08912 25.8393C7.00777 26.1409 7.04867 26.4626 7.20295 26.7343L8.4608 28.9178C8.61729 29.1897 8.87537 29.3883 9.17829 29.4699C9.4812 29.5516 9.80414 29.5095 10.0761 29.3531L17.5903 24.9999C17.637 24.9729 17.6899 24.9588 17.7438 24.9589C17.7976 24.959 17.8505 24.9734 17.897 25.0005C17.9435 25.0277 17.9821 25.0666 18.0087 25.1135C18.0353 25.1603 18.0491 25.2133 18.0486 25.2672L18.0425 33.9415C18.0425 34.2656 18.1712 34.5764 18.4004 34.8056C18.6295 35.0347 18.9403 35.1635 19.2644 35.1635H21.7083C22.0324 35.1635 22.3432 35.0347 22.5724 34.8056C22.8015 34.5764 22.9303 34.2656 22.9303 33.9415L22.9249 25.2603C22.9244 25.2064 22.9382 25.1534 22.9648 25.1066C22.9914 25.0598 23.03 25.0208 23.0765 24.9937C23.123 24.9665 23.1759 24.9522 23.2297 24.9521C23.2836 24.9519 23.3365 24.9661 23.3832 24.993L30.8974 29.3462C31.1694 29.5026 31.4923 29.5447 31.7952 29.463C32.0981 29.3814 32.3562 29.1828 32.5127 28.9109L33.7705 26.7274C33.8482 26.5931 33.8985 26.4449 33.9186 26.2911C33.9388 26.1374 33.9284 25.9811 33.888 25.8314C33.8476 25.6817 33.7781 25.5414 33.6834 25.4186C33.5886 25.2958 33.4706 25.193 33.336 25.1159L25.8141 20.7566C25.7682 20.7297 25.7301 20.6912 25.7036 20.645C25.6771 20.5987 25.6632 20.5464 25.6632 20.4931C25.6632 20.4399 25.6771 20.3875 25.7036 20.3413C25.7301 20.2951 25.7682 20.2566 25.8141 20.2297L33.336 15.8703C33.6065 15.7133 33.8039 15.4557 33.8852 15.1536C33.9665 14.8516 33.925 14.5297 33.7698 14.2581Z" stroke="#D4AF37" stroke-width="2.34615" stroke-linecap="round" stroke-linejoin="round"/>
</svg>
